<svg width="32" height="14" viewBox="0 0 32 14" fill="none" xmlns="http://www.w3.org/2000/svg">
<path d="M9.59989 9.59985C8.81482 9.59985 8.13324 10.0319 7.7631 10.6665C7.57964 10.9812 7.46655 11.3439 7.46655 11.7332C7.46655 12.9087 8.42335 13.8665 9.59989 13.8665C10.7764 13.8665 11.7332 12.9087 11.7332 11.7332C11.7332 11.3439 11.6212 10.9812 11.4367 10.6665C11.0665 10.0319 10.386 9.59985 9.59989 9.59985Z" fill="#6000E5"/>
<path d="M24.5332 9.59985C23.7482 9.59985 23.0666 10.0319 22.6965 10.6665C22.513 10.9812 22.3999 11.3439 22.3999 11.7332C22.3999 12.9087 23.3567 13.8665 24.5332 13.8665C25.7098 13.8665 26.6666 12.9087 26.6666 11.7332C26.6666 11.3439 26.5546 10.9812 26.37 10.6665C25.9999 10.0319 25.3194 9.59985 24.5332 9.59985Z" fill="#6000E5"/>
<path d="M30.9333 7.46667V6.4L24.5333 4.57067L17.0667 0H5.33333V1.06667H11.7333V2.13333H0V3.2H12.8V4.26667H2.13333V5.33333H7.46667V6.4H5.33333V7.46667H1.06667V8.53333H6.4V9.6H5.33333V10.6667H2.13333V11.7333H6.4C6.4 11.3579 6.47679 11.0016 6.59626 10.6667C7.03786 9.4272 8.20907 8.53333 9.6 8.53333C10.992 8.53333 12.1621 9.4272 12.6037 10.6667C12.7221 11.0016 12.8 11.3579 12.8 11.7333H21.3333C21.3333 11.3579 21.4101 11.0016 21.5296 10.6667C21.9712 9.4272 23.1424 8.53333 24.5333 8.53333C25.9253 8.53333 27.0955 9.4272 27.5371 10.6667C27.6555 11.0016 27.7333 11.3579 27.7333 11.7333H30.9333V10.6667H32V7.46667H30.9333Z" fill="#6000E5"/>
</svg>
