<svg width="400" height="75" viewBox="0 0 400 75" fill="none" xmlns="http://www.w3.org/2000/svg">
<path d="M376.905 74.928C374.669 74.8303 370.059 74.2541 368.75 73.9123C367.764 73.6584 366.914 73.4045 366.455 73.2287C366.182 73.131 365.899 73.0431 365.821 73.0431C365.733 73.0431 365.508 72.9552 365.303 72.8478C365.108 72.7404 364.844 72.6525 364.727 72.6525C364.6 72.6525 364.375 72.5646 364.209 72.4572C364.053 72.3497 363.838 72.2618 363.74 72.2618C363.643 72.2618 363.399 72.1837 363.203 72.0763C363.008 71.9786 362.627 71.7931 362.354 71.6661C361.465 71.2462 361.24 70.9043 361.572 70.4649C361.65 70.3574 361.719 70.1914 361.719 70.0937C361.719 69.9961 361.797 69.7519 361.904 69.5468C362.002 69.3515 362.109 69.0292 362.148 68.8339C362.188 68.6288 362.275 68.4237 362.354 68.3554C362.432 68.287 362.5 68.1405 362.5 68.0233C362.5 67.9061 362.559 67.7303 362.637 67.6229C362.705 67.5155 362.803 67.3201 362.842 67.1834C362.881 67.0467 363.193 66.2166 363.545 65.3278C363.887 64.4391 364.356 63.2574 364.58 62.691C365.186 61.1381 365.371 60.7377 365.498 60.7377C365.684 60.7377 366.582 61.0014 367.481 61.3139C369.805 62.1245 372.764 62.9058 374.61 63.189C374.962 63.2379 375.733 63.3648 376.319 63.4527C377.843 63.6871 380.948 63.6871 382.277 63.443C383.273 63.2574 384.679 62.857 385.206 62.6031C386.115 62.1831 387.169 61.2358 387.541 60.5326C388.517 58.6575 388.527 58.5892 388.517 53.335C388.498 49.2136 388.459 48.4323 388.283 48.4323C388.107 48.4323 387.921 48.7253 387.853 49.116C387.824 49.3406 387.726 49.614 387.658 49.7312C387.58 49.8484 387.492 50.1121 387.462 50.3074C387.423 50.5028 387.335 50.7957 387.257 50.9422C387.179 51.0887 387.111 51.2743 387.111 51.3329C387.111 51.4598 386.681 52.8271 386.535 53.1689C386.486 53.2764 386.242 54.0088 385.998 54.7999C385.685 55.7667 385.49 56.2453 385.372 56.2941C385.099 56.4015 382.296 56.5285 380.226 56.5383C377.276 56.5383 373.897 56.1671 372.315 55.6495C371.993 55.5519 371.661 55.464 371.583 55.464C371.153 55.464 368.36 54.1162 367.491 53.4912C366.006 52.4169 364.737 50.8446 363.867 49.0183C363.701 48.6667 363.506 48.2565 363.428 48.11C363.35 47.9538 363.281 47.7682 363.281 47.6901C363.281 47.612 363.193 47.3776 363.086 47.1627C362.979 46.9479 362.891 46.7037 362.891 46.606C362.881 46.5084 362.803 46.2545 362.695 46.0396C362.588 45.8247 362.5 45.5415 362.5 45.4048C362.49 45.2681 362.432 44.9849 362.344 44.77C362.188 44.3305 361.943 42.641 361.816 41.1565C361.768 40.6194 361.729 37.6211 361.729 34.496C361.719 31.361 361.689 28.7241 361.66 28.6362C361.309 27.5815 361.162 27.5034 359.492 27.5229C358.515 27.5327 358.008 27.4936 357.637 27.3862L357.109 27.2299L357.158 26.8686C357.217 26.4779 357.363 25.8822 357.588 25.1888C357.666 24.9446 357.773 24.5442 357.822 24.2903C357.871 24.0364 357.978 23.7043 358.056 23.5578C358.135 23.4113 358.203 23.1867 358.203 23.0695C358.203 22.9523 358.291 22.63 358.398 22.3566C358.506 22.0831 358.594 21.7706 358.594 21.6632C358.594 21.546 358.662 21.3214 358.74 21.1553C358.818 20.9796 358.926 20.667 358.974 20.4522C359.023 20.2373 359.131 19.8857 359.219 19.6709C359.297 19.456 359.365 19.1826 359.375 19.0556C359.375 18.9287 359.433 18.7138 359.502 18.5673C359.58 18.4208 359.687 18.0595 359.756 17.7665C359.971 16.7801 360.215 16.1551 360.439 16.0476C360.801 15.8621 372.813 15.657 373.018 15.8328C373.116 15.9109 373.145 17.5809 373.145 23.8606C373.155 36.8789 373.341 40.3166 374.102 41.7913C375.206 43.9301 376.573 44.6723 379.786 44.9067C382.052 45.0728 388.439 45.1606 388.517 45.0337C388.556 44.9751 388.576 38.4708 388.576 30.57C388.576 21.3214 388.605 16.1355 388.673 15.9695L388.771 15.7156H394.328C399.299 15.7156 399.885 15.7351 399.944 15.8718C400.041 16.116 400.002 53.9795 399.905 57.0266C399.807 60.0736 399.573 63.7848 399.475 63.941C399.436 63.9996 399.367 64.3024 399.309 64.6149C399.182 65.3376 398.703 66.5486 398.254 67.2908C397.053 69.2636 395.637 70.5723 392.726 72.4083C392.316 72.672 391.017 73.3361 390.724 73.4338C390.588 73.4826 390.177 73.6389 389.797 73.7756C388.254 74.3616 386.447 74.6839 383.595 74.8987C382.404 74.9866 378.624 75.0061 376.905 74.928Z" fill="white"/>
<path d="M181.044 60.8254C179.052 60.7277 178.583 60.5617 178.466 59.9074C178.427 59.7218 178.339 59.4484 178.261 59.3019C178.182 59.1554 178.114 58.9405 178.114 58.8331C178.114 58.7257 178.026 58.4424 177.919 58.2081C177.811 57.9737 177.723 57.71 177.723 57.6221C177.714 57.5342 177.636 57.29 177.528 57.0752C177.421 56.8603 177.343 56.6357 177.333 56.5673C177.333 56.499 177.03 55.5321 176.659 54.4188C176.298 53.3054 175.829 51.86 175.634 51.2155C175.428 50.5709 175.204 49.897 175.126 49.7212C175.048 49.5454 174.989 49.3306 174.989 49.2525C174.989 49.1743 174.911 48.9009 174.803 48.6469C174.706 48.393 174.53 47.8559 174.403 47.4555C174.286 47.0551 174.1 46.4984 174.003 46.2347C173.895 45.9612 173.817 45.678 173.817 45.5999C173.807 45.5218 173.729 45.2776 173.622 45.0628C173.514 44.8479 173.426 44.5842 173.426 44.4768C173.426 44.3694 173.338 44.1057 173.231 43.8908C173.124 43.676 173.045 43.4318 173.036 43.3537C173.036 43.2755 172.958 42.9923 172.85 42.7189C172.577 41.9962 172.44 41.5958 172.293 41.1074C172.098 40.4336 171.864 39.7304 171.717 39.3495C171.649 39.164 171.473 38.6171 171.327 38.1288C170.858 36.5662 170.575 35.697 170.438 35.3649C170.36 35.1891 170.301 34.9743 170.301 34.8766C170.291 34.7887 170.213 34.5348 170.106 34.3199C169.998 34.1051 169.911 33.8414 169.911 33.734C169.911 33.6265 169.823 33.3629 169.715 33.148C169.608 32.9331 169.52 32.6695 169.52 32.562C169.52 32.4546 169.452 32.2397 169.373 32.0835C169.285 31.9272 169.178 31.6342 169.129 31.4487C169.08 31.2534 168.973 30.8822 168.875 30.6088C168.719 30.1595 168.543 29.6615 168.25 28.802C168.192 28.6165 167.967 27.9133 167.752 27.2395C167.537 26.5656 167.244 25.6866 167.117 25.2862C166.854 24.4854 166.697 24.0068 166.404 23.04C166.297 22.6884 166.16 22.2489 166.102 22.0634C165.818 21.243 165.633 20.7156 165.477 20.2566C165.379 19.9929 165.272 19.6121 165.223 19.4167C165.174 19.2312 165.066 18.9382 164.979 18.7819C164.9 18.6257 164.832 18.4108 164.832 18.3034C164.832 18.196 164.744 17.9323 164.637 17.7174C164.529 17.5026 164.451 17.2486 164.441 17.151C164.441 17.0533 164.373 16.8482 164.295 16.7017C164.217 16.5455 164.109 16.2525 164.061 16.0474C163.973 15.6861 163.797 15.1489 163.504 14.3481C163.436 14.1625 163.182 13.3519 162.928 12.5413C162.674 11.7405 162.303 10.5686 162.088 9.94353C161.883 9.32826 161.707 8.75206 161.707 8.67393C161.697 8.5958 161.619 8.36141 161.512 8.14655C161.404 7.93169 161.326 7.67777 161.316 7.58011C161.316 7.47268 161.248 7.25783 161.17 7.0918C161.043 6.80858 160.232 4.4354 159.881 3.31229C159.803 3.06813 159.685 2.74585 159.607 2.57982C159.539 2.42356 159.412 2.07198 159.314 1.79853C158.884 0.489856 158.884 0.489856 159.383 0.216403C159.685 0.0503778 160.164 0.0406116 166.238 0.011313C170.838 -0.0179856 172.801 0.011313 172.87 0.0796763C172.977 0.187104 173.026 0.333597 173.368 1.55437C173.456 1.84736 173.563 2.17941 173.622 2.28684C173.68 2.39426 173.778 2.70678 173.856 2.97047C173.934 3.24392 174.09 3.7713 174.208 4.14241C174.325 4.52329 174.481 5.08973 174.559 5.41202C174.647 5.7343 174.745 6.03705 174.794 6.09565C174.833 6.14448 174.911 6.38864 174.969 6.63279C175.018 6.87695 175.292 7.8438 175.575 8.78135C175.858 9.71891 176.141 10.6858 176.219 10.9299C176.288 11.1741 176.444 11.6819 176.552 12.053C176.669 12.4339 176.825 12.9808 176.903 13.2738C176.991 13.5668 177.118 13.9477 177.196 14.1235C177.274 14.2895 177.333 14.5239 177.333 14.6411C177.333 14.7583 177.401 14.9927 177.479 15.1587C177.557 15.3345 177.684 15.6958 177.763 15.9595C177.968 16.6627 178.27 17.6686 178.388 18.0104C178.446 18.1764 178.583 18.6354 178.7 19.0359C178.827 19.4363 178.983 19.9636 179.052 20.2078C179.394 21.3504 179.833 22.8544 180.38 24.7491C180.487 25.13 180.614 25.5401 180.673 25.6769C180.731 25.8136 180.829 26.1456 180.897 26.4093C181.024 26.8879 181.054 26.9953 181.386 27.9719C181.474 28.2454 181.591 28.6556 181.64 28.8899C181.689 29.1243 181.767 29.3685 181.816 29.4271C181.894 29.5247 182.011 29.9056 182.353 31.1948C182.431 31.4682 182.558 31.8198 182.646 31.9761C182.734 32.1421 182.802 32.3765 182.802 32.5132C182.802 32.6499 182.87 32.8843 182.948 33.0308C183.027 33.1773 183.114 33.4703 183.153 33.6656C183.193 33.8609 183.261 34.1051 183.31 34.2028C183.359 34.3004 183.573 34.9938 183.788 35.736C184.003 36.488 184.208 37.201 184.257 37.3182C184.316 37.4451 184.462 37.9432 184.609 38.4217C184.745 38.9101 184.911 39.4374 184.96 39.5937C185.019 39.7597 185.107 40.0722 185.165 40.3066C185.234 40.5898 185.312 40.7168 185.419 40.7168C185.702 40.7168 185.82 40.5801 185.917 40.1113C185.976 39.8574 186.083 39.5058 186.161 39.33C186.23 39.1542 186.396 38.6757 186.513 38.2753C186.64 37.8748 186.816 37.2986 186.904 37.0056C187.001 36.7127 187.167 36.1365 187.285 35.736C187.402 35.3356 187.539 34.8766 187.597 34.7106C187.656 34.5543 187.753 34.2028 187.831 33.9293C187.939 33.4801 188.603 31.2436 189.072 29.681C189.179 29.3294 189.345 28.763 189.433 28.4114C189.531 28.0598 189.658 27.6789 189.716 27.5617C189.785 27.4445 189.834 27.2492 189.834 27.1223C189.834 26.9953 189.902 26.7707 189.99 26.6047C190.068 26.4484 190.185 26.0773 190.234 25.8038C190.293 25.5206 190.39 25.169 190.468 25.0225C190.546 24.8663 190.615 24.6807 190.615 24.6026C190.615 24.4756 190.8 23.8506 191.123 22.8935C191.181 22.7372 191.279 22.3564 191.347 22.0438C191.416 21.7411 191.504 21.4383 191.543 21.3797C191.582 21.3114 191.689 20.9696 191.787 20.6082C191.963 19.9246 192.451 18.2448 192.763 17.1803C192.871 16.8287 192.998 16.3697 193.047 16.1548C193.095 15.94 193.183 15.6372 193.242 15.4712C193.486 14.7778 193.662 14.1723 193.75 13.7621C193.799 13.518 193.896 13.1664 193.974 12.9808C194.043 12.7953 194.199 12.3069 194.326 11.9065C194.443 11.5061 194.58 11.0471 194.639 10.8811C194.697 10.7248 194.795 10.3342 194.863 10.0217C194.932 9.70914 195.039 9.40639 195.088 9.33803C195.146 9.26966 195.234 9.00598 195.283 8.73252C195.342 8.46884 195.459 8.02936 195.547 7.7559C195.635 7.49222 195.762 7.05274 195.84 6.77928C196.025 6.12495 196.445 4.62096 196.738 3.60527C196.865 3.14626 197.041 2.56029 197.109 2.28684C197.188 2.02315 197.314 1.58367 197.402 1.31022C197.49 1.04653 197.598 0.675414 197.647 0.489856C197.695 0.304299 197.793 0.118741 197.861 0.0699102C197.93 0.0210792 200.889 0.0015468 204.483 0.011313L210.977 0.0406116L211.3 0.275C211.651 0.519155 211.651 0.567986 211.417 1.26139C211.348 1.44694 211.222 1.82782 211.134 2.09151C211.036 2.36497 210.889 2.80444 210.792 3.06813C210.694 3.34158 210.596 3.66387 210.567 3.8006C210.538 3.93732 210.44 4.26937 210.343 4.53306C210.186 4.96277 209.659 6.62303 209.053 8.58603C208.946 8.93761 208.8 9.39662 208.731 9.61148C208.663 9.82634 208.487 10.4025 208.34 10.8811C208.204 11.3694 208.048 11.8284 208.008 11.9065C207.969 11.9847 207.813 12.4534 207.667 12.932C207.51 13.4203 207.305 14.016 207.208 14.27C207.1 14.5239 207.022 14.7973 207.022 14.8852C207.022 14.9731 206.963 15.188 206.885 15.354C206.749 15.6763 206.534 16.2916 206.29 17.0826C206.221 17.3268 206.085 17.6979 206.006 17.9127C205.928 18.1276 205.86 18.3815 205.85 18.4694C205.85 18.5671 205.792 18.7819 205.713 18.9577C205.635 19.1335 205.459 19.6804 205.313 20.159C205.176 20.6473 205 21.2137 204.922 21.4286C204.854 21.6434 204.649 22.2782 204.483 22.8447C204.317 23.4111 204.112 24.0264 204.043 24.2119C203.975 24.3975 203.731 25.1495 203.506 25.8722C203.282 26.5949 203.008 27.3762 202.91 27.6106C202.813 27.8352 202.725 28.0989 202.725 28.177C202.725 28.2649 202.657 28.47 202.578 28.636C202.5 28.8118 202.364 29.1927 202.276 29.4857C202.071 30.2279 201.621 31.644 201.446 32.1714C201.387 32.3374 201.28 32.6597 201.211 32.9038C200.772 34.3883 199.805 37.3963 199.707 37.5721C199.649 37.6795 199.6 37.8748 199.6 38.0018C199.6 38.1288 199.512 38.3924 199.404 38.5975C199.297 38.7929 199.209 39.0468 199.209 39.1542C199.209 39.2714 199.121 39.5253 199.014 39.7402C198.906 39.955 198.818 40.2285 198.818 40.3457C198.818 40.4726 198.731 40.7363 198.623 40.9414C198.516 41.1367 198.428 41.3907 198.428 41.5079C198.428 41.6153 198.35 41.9083 198.242 42.1622C198.145 42.4161 197.969 42.9533 197.842 43.3537C197.715 43.7541 197.539 44.2912 197.441 44.5451C197.334 44.7991 197.256 45.0725 197.256 45.1507C197.256 45.2288 197.197 45.4436 197.119 45.6194C197.041 45.7952 196.865 46.3421 196.719 46.8207C196.211 48.5493 195.967 49.3599 195.84 49.6529C195.771 49.8189 195.684 50.0923 195.644 50.2681C195.605 50.4439 195.517 50.7076 195.439 50.8541C195.361 51.0006 195.303 51.2057 195.303 51.3131C195.303 51.4205 195.215 51.7038 195.107 51.9382C195 52.1725 194.912 52.4558 194.912 52.573C194.902 52.6804 194.824 52.9538 194.717 53.1687C194.609 53.3836 194.521 53.6472 194.521 53.7547C194.521 53.8621 194.433 54.1258 194.326 54.3406C194.219 54.5555 194.131 54.8192 194.131 54.9266C194.131 55.034 194.043 55.2977 193.935 55.5126C193.828 55.7274 193.74 55.9911 193.74 56.0986C193.74 56.206 193.652 56.4697 193.545 56.6845C193.437 56.8994 193.359 57.1533 193.349 57.2412C193.349 57.3389 193.291 57.583 193.213 57.7783C193.135 57.9834 192.939 58.6085 192.763 59.1749C192.334 60.6203 192.275 60.7473 192.011 60.8449C191.738 60.9426 183.183 60.9328 181.044 60.8254Z" fill="white"/>
<path d="M216.124 60.8156C216.036 60.7277 216.007 56.9188 216.007 44.2912C216.007 35.2574 215.968 27.8254 215.929 27.7668C215.812 27.5812 215.538 27.5421 214.054 27.4835C212.276 27.4152 211.856 27.3663 211.71 27.1906C211.583 27.0441 211.661 26.1065 211.837 25.6768C211.886 25.5401 212.003 25.1494 212.1 24.7978C212.198 24.4463 212.452 23.5478 212.677 22.7958C212.901 22.0438 213.175 21.1453 213.272 20.7937C213.937 18.4889 214.239 17.4927 214.327 17.2779C214.386 17.1411 214.454 16.8677 214.493 16.6724C214.532 16.4477 214.649 16.2329 214.806 16.1059C215.06 15.9106 215.128 15.9106 221.193 15.9301C225.177 15.9497 227.365 15.9985 227.424 16.0571C227.56 16.1938 227.599 19.8561 227.678 35.7848C227.707 42.9337 227.756 48.8715 227.785 48.9789C227.824 49.184 227.873 49.1938 229.758 49.2231C231.857 49.2621 232.023 49.3012 232.023 49.7895C232.023 49.9263 231.945 50.3267 231.838 50.6782C231.623 51.3912 231.486 51.9381 231.291 52.7291C231.223 53.0221 231.096 53.5104 231.008 53.8034C230.754 54.6336 230.129 56.8505 229.67 58.54C229.182 60.3565 229.094 60.6007 228.898 60.757C228.693 60.923 228.254 60.9328 222.462 60.9328C217.755 60.9328 216.212 60.9035 216.124 60.8156Z" fill="white"/>
<path d="M238.332 60.7961C238.215 60.7082 238.186 58.462 238.147 45.9417C238.098 30.5404 238.039 28.0598 237.698 27.7082C237.571 27.5715 237.2 27.5227 235.559 27.4446C234.465 27.386 233.488 27.2883 233.381 27.2395C233.166 27.1223 233.127 26.5461 233.303 26.0968C233.361 25.9503 233.469 25.5792 233.537 25.2862C233.606 24.9932 233.781 24.3291 233.928 23.8213C234.065 23.3135 234.27 22.5908 234.377 22.2099C234.475 21.8388 234.641 21.2235 234.748 20.8426C234.856 20.4715 235.071 19.7488 235.237 19.2507C235.403 18.7429 235.539 18.2839 235.539 18.2155C235.539 18.1569 235.627 17.9421 235.735 17.737C235.842 17.5416 235.93 17.2975 235.93 17.1901C235.93 17.0924 236.008 16.9068 236.116 16.7799C236.213 16.6529 236.321 16.4576 236.36 16.3404C236.418 16.1353 236.799 15.9302 237.502 15.7154C238.088 15.5396 238.118 15.3931 238.176 12.4535L238.225 9.81658L238.664 9.69939C238.909 9.63102 239.299 9.5236 239.543 9.465C239.788 9.39663 240.266 9.26967 240.618 9.16225C240.969 9.05482 241.34 8.97669 241.448 8.97669C241.555 8.97669 241.907 8.88879 242.229 8.79113C242.864 8.58604 243.352 8.44931 244.28 8.24422C244.602 8.16609 245.1 8.03913 245.384 7.961C246.634 7.58012 246.946 7.50199 247.435 7.4141C247.718 7.36527 248.03 7.27737 248.138 7.21877C248.235 7.16018 248.587 7.09181 248.899 7.06251C249.446 7.00392 249.476 7.01368 249.534 7.22854C249.573 7.3555 249.603 8.44931 249.603 9.66032C249.603 13.2933 249.7 15.2271 249.896 15.4224C250.032 15.5591 250.413 15.5982 252.64 15.6568C255.306 15.7251 256.351 15.8326 256.546 16.0669C256.664 16.2134 256.644 16.3599 256.41 17.0826C256.332 17.3268 256.166 17.8542 256.048 18.2546C255.931 18.655 255.775 19.1628 255.706 19.3777C255.638 19.5925 255.355 20.5399 255.072 21.4774C254.798 22.415 254.505 23.3428 254.437 23.5283C254.359 23.7139 254.271 24.0166 254.242 24.1924C254.202 24.3682 254.115 24.6319 254.036 24.7784C253.958 24.9249 253.9 25.1495 253.9 25.2862C253.9 25.423 253.812 25.7062 253.714 25.921C253.617 26.1359 253.509 26.4679 253.47 26.6633C253.353 27.3176 253.167 27.3957 251.37 27.5227C250.491 27.5813 249.73 27.6594 249.681 27.6887C249.642 27.718 249.603 35.0915 249.603 44.0764C249.603 57.8174 249.583 60.4348 249.466 60.5324C249.192 60.757 238.606 61.011 238.332 60.7961Z" fill="white"/>
<path d="M291.129 60.8157C291.041 60.7278 291.011 56.9092 291.011 44.2131C291.011 28.4896 291.002 27.7278 290.836 27.6399C290.738 27.5911 290.025 27.5227 289.253 27.4934C287.369 27.4153 286.851 27.3469 286.714 27.1907C286.578 27.0246 286.656 26.3508 286.91 25.5304C287.007 25.2081 287.183 24.6417 287.29 24.2608C287.398 23.8897 287.583 23.3037 287.691 22.9619C287.798 22.6299 287.886 22.288 287.886 22.2099C287.886 22.1318 287.945 21.9267 288.023 21.7509C288.179 21.3993 289.42 17.2096 289.507 16.7408C289.537 16.5748 289.644 16.3307 289.742 16.2037L289.927 15.9596L296.07 15.9303C301.832 15.9107 302.233 15.9205 302.418 16.0767L302.623 16.2525L302.692 32.6109C302.731 43.2951 302.789 49.0083 302.848 49.0962C302.926 49.1841 303.375 49.2134 304.489 49.2134C306.559 49.2134 306.911 49.2623 306.999 49.5845C307.028 49.7213 307.008 50.0338 306.95 50.2779C306.657 51.4987 306.364 52.6414 305.915 54.3407C305.69 55.1708 305.358 56.3525 305.104 57.2217C304.967 57.6807 304.811 58.2276 304.752 58.4425C304.704 58.6573 304.586 59.0773 304.489 59.3703C304.391 59.6633 304.264 60.093 304.206 60.3274C304.118 60.6301 304.02 60.7766 303.844 60.8352C303.454 60.9817 291.275 60.9622 291.129 60.8157Z" fill="white"/>
<path d="M313.357 60.8253C313.249 60.7569 313.23 57.8173 313.21 44.2618C313.191 33.3725 313.152 27.757 313.083 27.6886C313.034 27.6398 312.136 27.5421 311.11 27.4737C310.075 27.4054 309.147 27.3273 309.059 27.2882C308.962 27.2491 308.864 27.1417 308.835 27.044C308.776 26.8682 309.02 25.4521 309.138 25.2666C309.167 25.2178 309.274 24.8662 309.372 24.4755C309.47 24.0849 309.616 23.5575 309.694 23.284C309.772 23.0204 309.948 22.4051 310.085 21.9168C310.222 21.4382 310.378 20.9109 310.437 20.7448C310.495 20.5886 310.651 20.0612 310.798 19.5729C310.935 19.0944 311.101 18.5377 311.179 18.3521C311.247 18.1666 311.345 17.8345 311.403 17.6197C311.452 17.4048 311.55 17.102 311.608 16.936C311.667 16.7798 311.735 16.5258 311.765 16.3793C311.794 16.2036 311.901 16.0961 312.116 16.018C312.331 15.9399 314.314 15.9106 318.416 15.9106C324.226 15.9106 324.422 15.9203 324.598 16.0961C324.705 16.2036 324.812 16.4379 324.851 16.6137C324.881 16.7895 324.939 18.401 324.988 20.1882C325.037 22.1316 325.105 23.4794 325.164 23.538C325.31 23.6845 325.662 23.1962 325.73 22.7567C325.769 22.5613 325.857 22.2488 325.926 22.0633C326.004 21.8777 326.131 21.4773 326.209 21.1843C326.287 20.8913 326.463 20.2956 326.59 19.8659C326.717 19.4362 326.98 18.5572 327.176 17.9126C327.361 17.2681 327.605 16.5258 327.703 16.2524L327.889 15.7641L331.59 15.7543C333.631 15.7445 335.653 15.7738 336.083 15.8227C336.512 15.8715 337.411 15.9496 338.085 16.0082C338.758 16.0668 339.501 16.1743 339.745 16.2524C339.989 16.3208 340.38 16.4184 340.624 16.4477C340.868 16.4868 341.18 16.5844 341.327 16.6528C341.473 16.7309 341.669 16.7895 341.757 16.7895C342.001 16.7895 343.925 17.7759 344.677 18.2838C346.581 19.5729 348.427 21.3699 349.462 22.9422C349.628 23.1864 349.775 23.4012 349.804 23.4305C349.951 23.5575 350.39 24.4072 350.39 24.5537C350.39 24.6318 350.458 24.8076 350.537 24.9345C350.888 25.4717 351.386 28.0695 351.562 30.3157C351.64 31.2337 351.699 34.9546 351.728 40.2772C351.767 47.387 351.796 48.8031 351.914 48.9301C352.099 49.1449 353.339 49.311 354.697 49.311C355.703 49.311 355.849 49.3305 356.006 49.5063C356.162 49.6821 356.172 49.7407 356.054 50.1215C355.986 50.3462 355.869 50.7759 355.8 51.0689C355.674 51.6158 355.429 52.5143 355.068 53.8034C354.961 54.2038 354.785 54.8484 354.687 55.2195C354.589 55.6004 354.414 56.2156 354.296 56.5868C354.179 56.9676 354.033 57.5146 353.964 57.8075C353.73 58.7939 353.105 60.7276 352.978 60.8351C352.871 60.923 343.075 60.796 341.376 60.6788C340.555 60.63 340.302 60.5714 340.243 60.4542C340.145 60.2686 340.087 57.2118 339.95 45.6486C339.843 36.2536 339.794 34.6031 339.598 32.5619C339.471 31.3412 339.423 31.1263 339.11 30.4915C338.7 29.6614 337.958 28.8117 337.342 28.4699C336.756 28.1476 335.702 27.8546 334.618 27.7277C333.328 27.5714 325.271 27.4444 325.125 27.5812C325.027 27.6593 324.988 29.7102 324.949 36.5172C324.92 41.3808 324.881 48.6957 324.851 52.7877C324.832 56.8798 324.783 60.2882 324.744 60.376C324.715 60.4542 324.627 60.5518 324.539 60.5811C324.109 60.7472 313.601 60.9718 313.357 60.8253Z" fill="white"/>
<path d="M262.719 60.7572C262.436 60.7181 262.152 60.6302 262.084 60.5619C262.025 60.5033 261.928 60.1908 261.879 59.888C261.84 59.5755 261.771 52.1825 261.742 43.4515C261.713 32.5622 261.664 27.5424 261.596 27.4545C261.517 27.3666 261.01 27.3373 259.545 27.3471C257.24 27.3666 257.269 27.3764 257.367 26.5169C257.396 26.1946 257.513 25.6673 257.621 25.3352C257.797 24.7785 257.963 24.2316 258.402 22.7472C258.5 22.3956 258.676 21.8292 258.783 21.4776C258.881 21.126 259.174 20.1591 259.418 19.329C259.662 18.4989 259.906 17.6883 259.965 17.5223C260.023 17.366 260.111 17.034 260.17 16.7898C260.219 16.5359 260.365 16.2527 260.502 16.1355L260.746 15.9108H266.791C270.971 15.9108 272.905 15.9401 273.071 16.0183C273.286 16.1159 273.315 16.2038 273.374 16.8582C273.403 17.2683 273.432 18.0985 273.432 18.7137C273.432 19.6025 273.462 19.8369 273.579 19.8759C273.667 19.915 274.126 19.5732 274.819 18.9384C276.157 17.7371 277.016 17.1609 278.218 16.6531C278.403 16.5749 278.735 16.4382 278.95 16.3503C280.22 15.8132 282.808 15.3835 284.175 15.4616C285.533 15.5495 286.314 15.7058 286.421 15.9108C286.48 16.0085 286.47 16.2136 286.412 16.4578C286.236 17.0926 285.923 18.1864 285.816 18.4989C285.757 18.6649 285.66 18.9872 285.591 19.2313C285.181 20.6572 283.736 25.6282 283.589 26.1165C283.335 26.9466 283.179 27.3666 283.081 27.4935C283.032 27.5619 282.378 27.6205 281.265 27.6596C279.751 27.6986 279.429 27.7377 278.677 27.9721C277.056 28.4702 275.854 29.2417 274.897 30.3941C274.067 31.3903 273.852 32.1325 273.774 34.2225C273.745 35.0819 273.676 36.5956 273.628 37.5918C273.569 38.5879 273.491 44.1254 273.432 49.8972C273.374 56.2355 273.296 60.4251 273.237 60.4837C273.188 60.5326 272.915 60.6107 272.631 60.6498C271.938 60.7572 263.363 60.8451 262.719 60.7572Z" fill="white"/>
<path d="M214.18 11.2619C214.151 11.174 214.19 10.9006 214.288 10.6466C214.376 10.4025 214.444 10.1193 214.444 10.0314C214.444 9.93371 214.532 9.60166 214.63 9.29891C214.737 8.98639 214.845 8.56645 214.884 8.37112C214.913 8.1758 215.001 7.88281 215.079 7.73632C215.157 7.58983 215.225 7.37497 215.225 7.26754C215.225 7.10152 215.391 6.53508 215.733 5.50963C215.792 5.35337 215.899 4.93342 215.977 4.58184C216.056 4.24002 216.153 3.90797 216.192 3.84938C216.241 3.80054 216.309 3.59545 216.349 3.4099C216.378 3.22434 216.495 2.80439 216.593 2.48211C216.69 2.15982 216.876 1.55432 217.003 1.12461C217.188 0.509338 217.276 0.343313 217.472 0.265183C217.774 0.138223 225.148 -0.0473349 226.935 0.0210285C228.175 0.0698594 228.253 0.0893918 228.488 0.32378C228.713 0.538637 228.722 0.597234 228.625 0.821856C228.556 0.958583 228.507 1.15391 228.507 1.25157C228.507 1.359 228.42 1.62268 228.312 1.85707C228.205 2.09146 228.117 2.39421 228.117 2.53094C228.117 2.66767 228.029 2.95089 227.921 3.16574C227.814 3.3806 227.726 3.66382 227.726 3.80054C227.726 3.93727 227.658 4.17166 227.58 4.32792C227.502 4.48418 227.404 4.78693 227.375 5.01155C227.335 5.22641 227.257 5.54869 227.179 5.70495C227.111 5.87098 226.984 6.26163 226.896 6.58391C226.818 6.90619 226.652 7.4824 226.544 7.85351C226.437 8.2344 226.251 8.93756 226.115 9.41611C225.695 11.008 225.626 11.1643 225.382 11.2912C225.197 11.3889 223.839 11.4182 219.689 11.4182C214.757 11.4182 214.239 11.3986 214.18 11.2619Z" fill="white"/>
<path d="M289.312 11.2911C289.166 11.1837 289.156 11.1251 289.244 10.9493C289.302 10.8419 289.419 10.4512 289.498 10.0801C289.732 9.03511 289.996 8.05849 290.103 7.8534C290.162 7.74597 290.23 7.46275 290.259 7.2186C290.289 6.97444 290.386 6.64239 290.464 6.48613C290.552 6.32011 290.621 6.08572 290.621 5.94899C290.621 5.81226 290.679 5.58764 290.757 5.44115C290.836 5.29466 290.953 4.93331 291.011 4.63055C291.07 4.3278 291.187 3.96645 291.265 3.81996C291.343 3.67347 291.402 3.44885 291.402 3.31212C291.402 3.17539 291.47 2.941 291.549 2.78474C291.627 2.62849 291.724 2.32573 291.763 2.10111C291.793 1.88626 291.9 1.52491 291.998 1.31005C292.095 1.09519 292.183 0.82174 292.183 0.704546C292.183 0.196704 292.359 0.177172 296.646 0.0697436C298.844 0.0209126 301.217 0.00138023 301.94 0.0209126C303.18 0.0697436 303.258 0.089276 303.512 0.333431C303.776 0.587352 303.776 0.587352 303.629 1.04636C303.551 1.30028 303.395 1.71046 303.297 1.96438C303.2 2.21831 303.121 2.50153 303.121 2.59919C303.121 2.69685 303.034 2.98983 302.936 3.26329C302.838 3.52698 302.701 3.94692 302.643 4.19108C302.575 4.43523 302.438 4.94307 302.33 5.31419C301.578 7.90223 301.383 8.63469 301.207 9.31833C301.129 9.64061 301.022 10.0117 300.973 10.1485C300.924 10.2852 300.836 10.5782 300.778 10.8028C300.699 11.1251 300.621 11.2227 300.367 11.3106C299.889 11.4767 289.546 11.4571 289.312 11.2911Z" fill="white"/>
<path d="M39.2306 49.1281C36.0224 49.1281 33.2371 50.8934 31.7246 53.487C30.9748 54.7729 30.5127 56.2549 30.5127 57.846C30.5127 62.6495 34.4227 66.5639 39.2306 66.5639C44.0385 66.5639 47.9485 62.6495 47.9485 57.846C47.9485 56.2549 47.4908 54.7729 46.7367 53.487C45.2241 50.8934 42.4432 49.1281 39.2306 49.1281Z" fill="#6000E5"/>
<path d="M100.256 49.1281C97.0478 49.1281 94.2625 50.8934 92.7499 53.487C92.0002 54.7729 91.5381 56.2549 91.5381 57.846C91.5381 62.6495 95.4481 66.5639 100.256 66.5639C105.064 66.5639 108.974 62.6495 108.974 57.846C108.974 56.2549 108.516 54.7729 107.762 53.487C106.249 50.8934 103.469 49.1281 100.256 49.1281Z" fill="#6000E5"/>
<path d="M126.41 40.4102V36.0512L100.256 28.5756L69.7433 9.89746H21.7948V14.2564H47.9485V18.6154H0V22.9743H52.3075V27.3333H8.71791V31.6922H30.5127V36.0512H21.7948V40.4102H4.35896V44.7691H26.1537V49.1281H21.7948V53.487H8.71791V57.846H26.1537C26.1537 56.3116 26.4675 54.8557 26.9557 53.487C28.7604 48.4219 33.5465 44.7691 39.2306 44.7691C44.919 44.7691 49.7009 48.4219 51.5055 53.487C51.9893 54.8557 52.3075 56.3116 52.3075 57.846H87.1791C87.1791 56.3116 87.4929 54.8557 87.9811 53.487C89.7858 48.4219 94.5719 44.7691 100.256 44.7691C105.944 44.7691 110.726 48.4219 112.531 53.487C113.015 54.8557 113.333 56.3116 113.333 57.846H126.41V53.487H130.769V40.4102H126.41Z" fill="#6000E5"/>
</svg>
