<svg width="50" height="50" viewBox="0 0 50 50" fill="none" xmlns="http://www.w3.org/2000/svg">
<path d="M49.819 26.7757C49.4439 22.5657 48.8261 21.7458 48.5927 21.4374C48.0562 20.7248 47.1977 20.2591 46.2893 19.7705C46.2379 19.7433 46.1935 19.7046 46.1597 19.6573C46.1258 19.6101 46.1034 19.5556 46.0942 19.4983C46.0851 19.4409 46.0893 19.3821 46.1067 19.3267C46.1241 19.2712 46.1541 19.2206 46.1945 19.1787C46.3627 19.0081 46.492 18.8031 46.5735 18.5777C46.6549 18.3524 46.6866 18.1121 46.6664 17.8733C46.6272 17.4499 46.4304 17.0567 46.1148 16.7717C45.7993 16.4867 45.3882 16.3307 44.963 16.3346H43.3378C43.2681 16.335 43.1986 16.3395 43.1294 16.3481C43.082 16.3275 43.0328 16.3111 42.9825 16.2991C42.0199 14.2645 40.702 11.4786 37.9703 10.1191C33.9187 8.10418 26.4551 8 24.9965 8C23.538 8 16.0744 8.10418 12.028 10.1159C9.29632 11.4755 7.97842 14.2613 7.01578 16.296L7.00744 16.3127C6.95943 16.3194 6.91228 16.3313 6.8668 16.3481C6.79767 16.3395 6.72809 16.335 6.65843 16.3346H5.03007C4.60489 16.3307 4.19378 16.4867 3.87826 16.7717C3.56275 17.0567 3.36588 17.4499 3.32669 17.8733C3.30819 18.1115 3.34133 18.3509 3.42386 18.5751C3.50639 18.7994 3.63636 19.0031 3.80489 19.1725C3.8452 19.2143 3.87524 19.265 3.89263 19.3204C3.91003 19.3759 3.91429 19.4346 3.9051 19.492C3.89591 19.5494 3.8735 19.6038 3.83966 19.6511C3.80582 19.6983 3.76146 19.7371 3.71008 19.7642C2.80161 20.256 1.93899 20.7217 1.40662 21.4311C1.17325 21.7437 0.556493 22.5594 0.180396 26.7694C-0.0279681 29.1385 -0.0592226 31.591 0.104343 33.1704C0.447102 36.4521 1.08991 38.4357 1.11699 38.518C1.21563 38.8175 1.3972 39.0829 1.64062 39.2834C1.88404 39.4838 2.17933 39.6111 2.49219 39.6505V39.6713C2.49219 40.1134 2.66782 40.5374 2.98042 40.85C3.29303 41.1626 3.71701 41.3382 4.15911 41.3382H9.9933C10.4354 41.3382 10.8594 41.1626 11.172 40.85C11.4846 40.5374 11.6602 40.1134 11.6602 39.6713C12.5572 39.6713 13.1813 39.5109 13.8428 39.34C14.7979 39.0827 15.7742 38.9115 16.7599 38.8285C19.9385 38.5253 23.0994 38.4211 24.9965 38.4211C26.8552 38.4211 30.1556 38.5253 33.3394 38.8285C34.329 38.9117 35.3092 39.0836 36.268 39.3421C36.9014 39.5046 37.5026 39.6547 38.335 39.6703C38.335 40.1124 38.5106 40.5364 38.8232 40.849C39.1358 41.1616 39.5598 41.3372 40.0019 41.3372H45.8361C46.2782 41.3372 46.7022 41.1616 47.0148 40.849C47.3274 40.5364 47.503 40.1124 47.503 39.6703V39.6578C47.8166 39.6192 48.1128 39.4922 48.357 39.2917C48.6012 39.0912 48.7834 38.8254 48.8824 38.5253C48.9094 38.443 49.5522 36.4594 49.895 33.1777C50.0586 31.5972 50.0294 29.1489 49.819 26.7757ZM10.0287 17.7212C10.8622 15.9501 11.8154 13.9457 13.5126 13.1008C15.965 11.8797 21.048 11.3297 24.9965 11.3297C28.945 11.3297 34.0281 11.8756 36.4805 13.1008C38.1777 13.9457 39.1268 15.9512 39.9644 17.7212L40.0686 17.9473C40.1295 18.076 40.1564 18.2182 40.1468 18.3602C40.1372 18.5023 40.0913 18.6395 40.0136 18.7588C39.9358 18.8781 39.8288 18.9755 39.7028 19.0418C39.5767 19.108 39.4358 19.1408 39.2934 19.1371C35.8315 19.0433 28.5387 18.7432 24.9965 18.7432C21.4544 18.7432 14.1616 19.0506 10.6944 19.1443C10.5521 19.1481 10.4112 19.1153 10.2851 19.0491C10.159 18.9828 10.052 18.8854 9.97432 18.7661C9.89659 18.6468 9.85073 18.5096 9.8411 18.3675C9.83148 18.2255 9.85841 18.0833 9.91933 17.9546C9.95579 17.8775 9.99434 17.7994 10.0287 17.7212ZM11.2716 26.0172C9.47948 26.2329 7.67588 26.3394 5.87082 26.336C4.76649 26.336 3.62778 26.0235 3.41629 25.04C3.27148 24.3785 3.2871 24.0065 3.36524 23.6325C3.43087 23.3148 3.53506 23.0835 4.05597 23.0022C5.41033 22.7938 6.16774 23.0553 8.38473 23.7086C9.85474 24.1409 10.9153 24.717 11.5196 25.1734C11.8227 25.3984 11.6613 25.986 11.2716 26.0172ZM34.3354 34.5602C32.9644 34.7164 30.2223 34.6591 25.0278 34.6591C19.8333 34.6591 17.0923 34.7164 15.7212 34.5602C14.3064 34.4028 12.503 33.0651 13.7345 31.8733C14.5544 31.0878 16.4672 30.5002 19.0144 30.1699C21.5617 29.8397 22.64 29.6699 25.0174 29.6699C27.3948 29.6699 28.3637 29.774 31.0204 30.171C33.677 30.5679 35.6846 31.1628 36.3003 31.8743C37.4234 33.1495 35.7492 34.3945 34.3354 34.5664V34.5602ZM46.5768 25.039C46.3684 26.0266 45.2224 26.335 44.1223 26.335C42.2827 26.3354 40.4446 26.229 38.6173 26.0162C38.2985 25.986 38.1506 25.4265 38.4735 25.1723C39.0684 24.7045 40.1404 24.1399 41.6084 23.7075C43.8254 23.0543 45.1037 22.7928 46.2018 23.0105C46.4695 23.0637 46.6112 23.3512 46.6279 23.5315C46.7013 24.0333 46.684 24.5443 46.5768 25.04V25.039Z" fill="#747A88"/>
</svg>
