<svg xmlns="http://www.w3.org/2000/svg" version="1.1" xmlns:xlink="http://www.w3.org/1999/xlink" width="512" height="512" x="0" y="0" viewBox="0 0 426.667 426.667" style="enable-background:new 0 0 512 512" xml:space="preserve" class=""><g><path d="M213.332 0C95.512 0 0 95.512 0 213.332s95.512 213.336 213.332 213.336 213.336-95.516 213.336-213.336C426.535 95.566 331.102.132 213.332 0zm0 42.668c70.29-.238 133.445 42.895 158.805 108.445a378.551 378.551 0 0 0-158.805-33.336 378.546 378.546 0 0 0-158.8 33.336c25.359-65.55 88.515-108.683 158.8-108.445zm-35.133 337.676c-74.27-15.86-129.203-78.77-134.906-154.5 63.707 0 134.906 84.824 134.906 154.5zm35.133-135.012c-17.672 0-32-14.324-32-32 0-17.672 14.328-32 32-32 17.676 0 32 14.328 32 32 0 17.676-14.324 32-32 32zm35.137 135.012c0-69.676 71.199-154.5 134.91-154.5-5.707 75.73-60.64 138.64-134.91 154.5zm0 0" fill="#000000" opacity="1" data-original="#000000" class=""></path></g></svg>