<svg xmlns="http://www.w3.org/2000/svg" version="1.1" xmlns:xlink="http://www.w3.org/1999/xlink" width="512" height="512" x="0" y="0" viewBox="0 0 512.002 512.002" style="enable-background:new 0 0 512 512" xml:space="preserve" class=""><g><path d="M256 248.689c-4.032 0-7.312 3.281-7.312 7.312 0 4.031 3.28 7.311 7.312 7.311s7.312-3.28 7.312-7.311-3.28-7.312-7.312-7.312zM189.569 223.3l37.052 9.655a37.583 37.583 0 0 1 14.352-11.154v-38.33c-22.592 4.676-41.443 19.678-51.404 39.829zM271.026 183.472v38.33a37.547 37.547 0 0 1 14.352 11.154l37.052-9.655c-9.958-20.151-28.81-35.154-51.404-39.829zM219.134 262.061l-37.105-9.669a74.484 74.484 0 0 0-.091 3.609c0 19.371 7.484 37.02 19.701 50.232l23.125-29.764a37.138 37.138 0 0 1-5.63-14.408zM329.971 252.392l-37.105 9.669a37.095 37.095 0 0 1-5.629 14.407l23.125 29.764c12.218-13.211 19.701-30.86 19.701-50.232a75.77 75.77 0 0 0-.092-3.608zM261.938 292.888c-1.935.311-3.917.477-5.938.477s-4.003-.166-5.938-.477l-23.966 30.847a73.604 73.604 0 0 0 29.905 6.329 73.607 73.607 0 0 0 29.905-6.329l-23.968-30.847z" fill="#000000" opacity="1" data-original="#000000" class=""></path><path d="M256 124.167c-72.693 0-131.834 59.141-131.834 131.834S183.306 387.835 256 387.835s131.835-59.14 131.835-131.834S328.694 124.167 256 124.167zm0 235.95c-57.41 0-104.116-46.706-104.116-104.116S198.59 151.885 256 151.885s104.116 46.706 104.116 104.116S313.41 360.117 256 360.117z" fill="#000000" opacity="1" data-original="#000000" class=""></path><path d="M497.889 341.191c7.828-22.161 12.692-45.706 14.113-70.164h-26.649V240.973H512c-1.373-23.648-5.957-46.447-13.336-67.962l-24.685 10.094-11.374-27.818 24.654-10.081c-10.44-21.703-23.857-41.71-39.703-59.513L428.8 104.449l-21.248-21.251 18.755-18.755a257.398 257.398 0 0 0-57.418-38.668l-10.298 24.546-27.713-11.626 10.312-24.58A254.792 254.792 0 0 0 271.026.002v26.646h-30.053V.001c-23.648 1.373-46.447 5.958-67.963 13.336l10.093 24.683-27.817 11.374-10.081-24.654c-21.703 10.44-41.71 23.857-59.513 39.702l18.755 18.755-21.25 21.25-18.754-18.753a257.376 257.376 0 0 0-38.668 57.418l24.546 10.299-11.628 27.713-24.579-10.312C6.285 192.972 1.421 216.516 0 240.974h26.647v30.053H0c1.373 23.648 5.958 46.447 13.336 67.963l24.685-10.094 11.374 27.818-24.654 10.081c10.44 21.703 23.857 41.71 39.702 59.514l18.755-18.755 21.25 21.25-18.755 18.755a257.42 257.42 0 0 0 57.419 38.669l10.299-24.547 27.713 11.626-10.313 24.581c22.161 7.828 45.706 12.692 70.164 14.113v-26.647h30.053v26.647c23.648-1.373 46.447-5.957 67.963-13.336l-10.093-24.684 27.817-11.374 10.081 24.655c21.703-10.44 41.71-23.857 59.514-39.702l-18.755-18.755 21.25-21.25 18.755 18.755a257.398 257.398 0 0 0 38.668-57.418l-24.546-10.299 11.628-27.713 24.579 10.311zM256 417.888c-89.264 0-161.887-72.622-161.887-161.887S166.736 94.114 256 94.114c89.265 0 161.888 72.623 161.888 161.887S345.265 417.888 256 417.888z" fill="#000000" opacity="1" data-original="#000000" class=""></path></g></svg>